<?xml version="1.0" standalone="no"?>
<!DOCTYPE svg PUBLIC "-//W3C//DTD SVG 20010904//EN"
 "http://www.w3.org/TR/2001/REC-SVG-20010904/DTD/svg10.dtd">
<svg version="1.0" xmlns="http://www.w3.org/2000/svg"
 width="549.000000pt" height="439.000000pt" viewBox="0 0 549.000000 439.000000"
 preserveAspectRatio="xMidYMid meet">

<g transform="translate(0.000000,439.000000) scale(0.100000,-0.100000)"
fill="#000000" stroke="none">
<path d="M77 4268 c60 -78 1515 -2091 1519 -2102 4 -9 -278 -393 -765 -1041
l-770 -1026 56 3 57 3 1019 1344 c560 739 1017 1347 1015 1351 -2 4 -244 338
-538 743 l-535 737 -57 0 c-32 0 -58 -2 -58 -4 0 -3 240 -337 534 -743 l534
-738 -27 -37 c-14 -21 -29 -38 -32 -38 -4 0 -261 351 -570 780 l-564 779 -59
1 c-45 0 -56 -3 -49 -12 6 -7 274 -377 597 -821 l586 -808 -32 -40 c-25 -31
-34 -37 -43 -27 -7 7 -288 394 -625 861 l-612 847 -54 0 c-30 0 -54 -2 -54 -5
0 -2 290 -405 645 -895 355 -490 645 -895 645 -900 0 -17 -44 -80 -54 -77 -5
2 -316 425 -690 940 l-681 936 -52 0 c-29 1 -53 -1 -53 -4 0 -3 319 -444 710
-981 l710 -976 -27 -34 c-14 -19 -31 -33 -37 -31 -6 2 -342 459 -746 1015
l-735 1011 -59 1 c-45 0 -56 -3 -49 -12z"/>
<path d="M2640 3263 l0 -1018 -805 -1068 c-443 -588 -805 -1070 -805 -1073 0
-2 24 -4 54 -4 l54 0 749 992 748 991 3 -991 2 -992 45 0 45 0 0 2090 0 2090
-45 0 -45 0 0 -1017z"/>
<path d="M2830 2190 l0 -2090 50 0 50 0 0 2090 0 2090 -50 0 -50 0 0 -2090z"/>
<path d="M3020 2190 l0 -2090 50 0 50 0 0 2090 0 2090 -50 0 -50 0 0 -2090z"/>
<path d="M3210 2190 l0 -2090 50 0 50 0 0 2090 0 2090 -50 0 -50 0 0 -2090z"/>
<path d="M3400 2190 l0 -2090 50 0 50 0 0 2090 0 2090 -50 0 -50 0 0 -2090z"/>
<path d="M3600 2190 l0 -2090 900 0 900 0 0 45 0 45 -852 2 -853 3 -3 48 -3
47 855 0 856 0 0 50 0 50 -855 0 -855 0 0 50 0 50 855 0 855 0 0 45 0 45 -855
0 -855 0 0 50 0 50 855 0 855 0 0 45 0 45 -855 0 -855 0 0 50 0 50 855 0 855
0 0 45 0 45 -852 2 -853 3 -3 1658 -2 1657 -45 0 -45 0 0 -2090z"/>
<path d="M1290 1414 c-536 -713 -977 -1300 -978 -1305 -2 -5 21 -9 50 -9 l54
0 950 1257 c522 691 952 1261 956 1268 4 7 -6 28 -25 49 l-32 37 -975 -1297z"/>
<path d="M1470 1338 c-503 -671 -917 -1225 -919 -1230 -1 -5 22 -8 53 -6 l57
3 893 1185 894 1184 -31 43 c-17 24 -31 43 -31 43 -1 -1 -413 -550 -916 -1222z"/>
<path d="M1649 1248 c-470 -622 -855 -1135 -857 -1140 -2 -4 21 -8 51 -8 l55
0 788 1047 c434 576 808 1073 832 1104 l43 58 -23 35 c-13 20 -26 36 -29 36
-3 0 -390 -509 -860 -1132z"/>
</g>
</svg>
